<?xml version="1.0" encoding="UTF-8"?> <svg xmlns="http://www.w3.org/2000/svg" id="Layer_1" x="0" y="0" version="1.1" xml:space="preserve" viewBox="0 0 166.1 40"> <style> .st0{fill:#311b58}.st1{fill:#00e8cc}.st2{fill:#50239f}.st6{enable-background:new} </style> <g id="Ebene_4"> <path d="M15.5.8c0-.7-.5-1-1.1-.7 0 0-2.4 1.4-4.3 2.3-2.2 1-5.7 2-7.9 2.4C.8 5.1.6 6 .5 6.8.4 8.1.3 9.7.3 11c-.1 3.4-.4 6.9 0 10.2.2 2 .8 4.3 1.7 6.1 1.4 2.6 3.2 5 5.3 7 2.2 2 7 4.3 7 4.3.7.3 1.2 0 1.2-.8V.8z" class="st0"></path> <path d="M10 4.5C6.8 5.7 2.3 6.8 2.3 6.8c-.2 1.7-.3 3.4-.3 5-.1 3-.4 6.1 0 9.1.2 1.8.7 3.8 1.5 5.4 1.2 2.3 2.8 4.7 4.8 6.5 1.9 1.8 4.4 3 6.8 4.1l.5.2V1.9c-1.9 1-3.7 1.8-5.6 2.6z" class="st1"></path> <path d="M19.3 37.9c0 .7.5 1.1 1.2.8 0 0 4.8-2.3 7-4.3s4-4.4 5.3-7c.9-1.8 1.5-4.1 1.7-6.1.4-3.3.1-6.9 0-10.2 0-1.3-.1-2.9-.2-4.2-.1-.9-.3-1.8-1.7-2-2.2-.4-5.7-1.4-7.9-2.4-1.8-.9-4.3-2.3-4.3-2.3-.6-.4-1.1-.1-1.1.7v37z" class="st0"></path> <path d="M19.8 37c2.4-1.1 4.8-2.3 6.8-4.1s3.5-4.2 4.8-6.5c.8-1.6 1.3-3.6 1.5-5.4.3-3 .1-6.1 0-9.1l-.3-5.1s-4.6-1-7.7-2.3c-1.9-.7-3.7-1.6-5.4-2.6v35.3l.3-.2z" class="st2"></path> <linearGradient id="SVGID_1_" x1="12.454" x2="20.295" y1="-124.014" y2="-124.014" gradientTransform="translate(0 142.001)" gradientUnits="userSpaceOnUse"> <stop offset="0" stop-color="#00e8cc"></stop> <stop offset=".95" stop-color="#00e8cc"></stop> </linearGradient> <path fill="url(#SVGID_1_)" d="M12.5 13.8h7.8v8.4h-7.8z"></path> <path d="M23 10.6H7.7c-1.2 0-2.1-1-2.1-2.2 0-1.2 1-2.1 2.1-2.1H23c1.2 0 2.1 1 2.1 2.2-.1 1.2-1 2.1-2.1 2.1zM22.2 24.5H7.7c-1.3 0-2.3-1-2.3-2.3s1-2.3 2.3-2.3h14.6c1.3 0 2.3 1 2.3 2.3s-1.1 2.3-2.4 2.3z" class="st1"></path> <path d="M23 28.8h-9.8c-1.2 0-2.1-1-2.1-2.2 0-1.2 1-2.1 2.1-2.1H23c1.2 0 2.1 1 2.1 2.2-.1 1.1-1 2.1-2.1 2.1z" class="st2"></path> <linearGradient id="SVGID_2_" x1="14.296" x2="18.038" y1="-137.312" y2="-137.312" gradientTransform="translate(0 142.001)" gradientUnits="userSpaceOnUse"> <stop offset="0" stop-color="#00e8cc"></stop> <stop offset=".95" stop-color="#00e8cc"></stop> </linearGradient> <path fill="url(#SVGID_2_)" d="M15.5 4.9V2.8l-1.2.1v3.7H18v-.3h-1.1c-.8 0-1.4-.6-1.4-1.4z"></path> <linearGradient id="SVGID_3_" x1="15.458" x2="18.036" y1="-107.167" y2="-107.167" gradientTransform="translate(0 142.001)" gradientUnits="userSpaceOnUse"> <stop offset="0" stop-color="#00e8cc"></stop> <stop offset=".95" stop-color="#00e8cc"></stop> </linearGradient> <path fill="url(#SVGID_3_)" d="M15.5 35.5v.3-1.9h2.6v.1H17c-.9 0-1.5.7-1.5 1.5z"></path> <path d="M20.7 17h-7.4c-1.8 0-3.2-1.5-3.1-3.2 0-1.7 1.4-3.1 3.1-3.1h7.4c1.8 0 3.2 1.5 3.1 3.2 0 1.7-1.4 3.1-3.1 3.1z" class="st2"></path> <path d="M20.4 34h-6.5c-1.5 0-2.6-1.2-2.6-2.6 0-1.5 1.2-2.6 2.6-2.6h6.5c1.5 0 2.6 1.2 2.6 2.6 0 1.4-1.1 2.6-2.6 2.6z" class="st1"></path> <path d="M27 19.9h-9.8c-.9 0-1.6-.8-1.6-1.7 0-.9.7-1.6 1.6-1.6H27c.9 0 1.7.7 1.7 1.6 0 .9-.7 1.7-1.7 1.7z" class="st2"></path> <g class="st6"> <path d="M66.7 25.6H56l-2.2 6.5h-5L59.2 4.4h4.3L74 32.1h-5l-2.3-6.5zm-9.3-3.9h8l-4-11.5-4 11.5zM76.7 6.1c0-.7.2-1.3.7-1.8s1.1-.7 1.9-.7c.8 0 1.5.2 1.9.7.6.5.8 1.1.8 1.8s-.2 1.3-.7 1.7c-.5.5-1.1.7-1.9.7-.8 0-1.5-.2-1.9-.7-.5-.4-.8-1-.8-1.7zm5 26H77V11.5h4.6v20.6zM97.5 15.7c-.3-.1-.6-.1-.9-.1h-1c-1.1 0-2 .2-2.7.6-.7.4-1.2 1-1.6 1.8v14.1h-4.6V11.5h4.4l.1 2.3c.5-.8 1.2-1.5 1.9-2 .8-.5 1.7-.7 2.7-.7.3 0 .6 0 .9.1.3.1.6.1.7.2l.1 4.3z" class="st1"></path> </g> <g class="st6"> <path d="M122.1 28.5c-.3.4-.7.8-1.2 1.3s-1.2.9-2 1.3-1.8.7-3 1c-1.1.3-2.5.4-4 .4-1.7 0-3.3-.3-4.8-.9-1.5-.6-2.7-1.5-3.7-2.6s-1.8-2.5-2.4-4.2c-.6-1.7-.9-3.5-.9-5.7v-1.8c0-2.1.3-4 .8-5.6.5-1.7 1.3-3.1 2.2-4.2s2.2-2 3.6-2.6c1.4-.6 3-.9 4.8-.9 1.7 0 3.2.2 4.4.7 1.3.4 2.3 1 3.2 1.8.9.8 1.5 1.7 2 2.8.5 1.1.8 2.3 1 3.6h-4.7c-.1-.7-.3-1.4-.6-2-.3-.6-.6-1.1-1.1-1.6-.5-.4-1-.8-1.7-1-.7-.3-1.5-.4-2.4-.4-1.1 0-2.1.2-2.9.6-.8.4-1.5 1-2.1 1.8-.6.8-1 1.8-1.2 3-.3 1.2-.4 2.5-.4 4v1.9c0 1.5.2 2.9.5 4 .3 1.2.8 2.2 1.4 3 .6.8 1.4 1.4 2.2 1.8.9.4 1.9.6 3 .6.8 0 1.5-.1 2.1-.2.6-.1 1.1-.2 1.5-.4.4-.2.7-.3 1-.5.3-.2.5-.4.6-.6v-5.4h-5.7v-3.7h10.5v10.7zM139.2 32.1c-.1-.2-.2-.5-.3-.9-.1-.3-.2-.7-.2-1.1-.3.3-.6.6-1 .9-.4.3-.8.5-1.2.7-.4.2-.9.4-1.5.5-.5.1-1.1.2-1.7.2-1 0-2-.2-2.8-.5-.9-.3-1.6-.7-2.2-1.3-.6-.6-1.1-1.2-1.4-2-.3-.7-.5-1.6-.5-2.4 0-1.1.2-2.1.6-2.9.4-.9 1-1.6 1.8-2.1.8-.6 1.8-1 2.9-1.3 1.2-.3 2.5-.4 4-.4h2.9v-1.4c0-1.1-.3-1.9-.9-2.6-.6-.6-1.5-1-2.7-1-.5 0-1 .1-1.5.2-.4.1-.8.3-1.1.6-.3.3-.6.5-.7.9-.2.3-.3.7-.3 1.1h-4.6c0-.8.2-1.6.6-2.4.4-.8 1-1.4 1.7-2 .7-.6 1.6-1.1 2.7-1.4 1-.4 2.2-.5 3.5-.5 1.2 0 2.2.2 3.2.4 1 .3 1.8.7 2.5 1.3.7.6 1.3 1.3 1.7 2.2.4.9.6 1.9.6 3.1v9.1c0 1.9.3 3.3.8 4.4v.3l-4.9.3zm-5-3.3c.5 0 1-.1 1.5-.2s.9-.3 1.3-.6c.4-.2.7-.5 1-.8.3-.3.5-.6.7-.9v-3.9h-2.5c-1.7 0-3 .3-3.9.9-.9.6-1.3 1.4-1.3 2.5 0 .4.1.8.2 1.2.1.4.3.7.6.9.3.3.6.5 1 .6.4.2.8.3 1.4.3zM166.1 22c0 1.5-.2 2.9-.5 4.2-.3 1.3-.9 2.4-1.5 3.3-.7.9-1.5 1.7-2.5 2.2s-2.1.8-3.4.8c-1.2 0-2.2-.2-3.1-.6-.9-.4-1.7-.9-2.3-1.7V40H148V11.5h4.3l.2 2.1c.7-.8 1.4-1.4 2.4-1.8.9-.4 2-.6 3.2-.6 1.3 0 2.5.3 3.5.8s1.8 1.2 2.5 2.1c.7.9 1.2 2 1.5 3.3.3 1.3.5 2.7.5 4.3v.3zm-4.6-.4c0-.9-.1-1.8-.3-2.6-.2-.8-.5-1.5-.8-2.1-.4-.6-.9-1.1-1.5-1.4-.6-.3-1.3-.5-2.2-.5-1 0-1.9.2-2.5.6-.7.4-1.2 1-1.6 1.7v9.1c.4.7.9 1.3 1.6 1.7.7.4 1.5.7 2.6.7.8 0 1.6-.2 2.1-.5.6-.4 1.1-.9 1.5-1.5.4-.6.7-1.3.8-2.2.2-.8.3-1.7.3-2.6v-.4z" class="st2"></path> </g> </g> </svg> 